<?xml version="1.0" encoding="utf-8" ?>
<svg baseProfile="tiny" height="100mm" version="1.2" width="100mm" xmlns="http://www.w3.org/2000/svg" xmlns:ev="http://www.w3.org/2001/xml-events" xmlns:xlink="http://www.w3.org/1999/xlink"><defs /><path d="M -0.3204555537489292,0.24041241583448902 L -0.2972835995413587,0.4773849364974939 L -0.2699725263494099,0.7097100451204302 L -0.23857552072110974,0.9374399983611622 L -0.20314576920448493,1.1606270528775555 L -0.16373645834756265,1.3793234653274735 L -0.1204007746983699,1.5935814923687823 L -0.07319190480493316,1.8034533906593457 L -0.022163035215279604,2.0089914168570284 L 0.03263264752256392,2.210247827619695 L 0.09114195686057053,2.4072748796052106 L 0.15331170625071325,2.6001248294714387 L 0.219088709144965,2.788849933876245 L 0.2884197789952994,2.9735024494774955 L 0.3612517292536889,3.154134632933052 L 0.4375313733721071,3.3307987409007818 L 0.5172055248025269,3.503547030038548 L 0.6002209969969211,3.6724317570042153 L 0.6865246034072632,3.837505178455649 L 0.7760631574855263,3.9988195510507136 L 0.8687834726836834,4.156427131447275 L 0.9646323624537073,4.310380176303195 L 1.0635566402475716,4.460730942276341 L 1.1655031195172492,4.607531686024576 L 1.2704186137147127,4.750834664205764 L 1.3782499362919358,4.890692133477773 L 1.4889439007008918,5.0271563504984655 L 1.6024473203935536,5.160279571925707 L 1.7187070088218932,5.290114054417359 L 1.8376697794378851,5.41671205463129 L 1.9592824456935019,5.540125829225363 L 2.0834918210407163,5.660407634857443 L 2.2102447189315018,5.777609728185394 L 2.339487952817832,5.891784365867083 L 2.4711683361516794,6.0029838045603725 L 2.6052326823850165,6.111260300923127 L 2.7416278049698164,6.216666111613211 L 2.8803005173580543,6.319253493288491 L 3.0211976330017016,6.419074702606831 L 3.1642659653527305,6.516181996226094 L 3.3094523278631165,6.6106276308041485 L 3.4567035339848315,6.702463862998858 L 3.6059663971698463,6.79174294946808 L 3.7571877308701387,6.878517146869689 L 3.910314348537678,6.962838711861546 L 4.065293063624439,7.044759901101517 L 4.222070689582394,7.124332971247463 L 4.380594039863516,7.201610178957251 L 4.540809927919779,7.276643780888743 L 4.702665167203156,7.349486033699811 L 4.866106571165619,7.420189194048313 L 5.031080953259143,7.488805518592115 L 5.1975351269356995,7.555387263989084 L 5.365415905647263,7.6199866868970805 L 5.534670102845803,7.682656043973973 L 5.705244531983296,7.743447591877624 L 5.877086006511714,7.802413587265899 L 6.050141339883032,7.859606286796663 L 6.224357345549221,7.91507794712778 L 6.399680836962253,7.968880824917115 L 6.576058627574103,8.021067176822532 L 6.753437530836743,8.071689259501895 L 6.931764360202148,8.120799329613073 L 7.1109859291222905,8.168449643813927 L 7.291049051049143,8.214692458762324 L 7.471900539434678,8.259580031116124 L 7.653487207730871,8.303164617533197 L 7.8357558693896925,8.345498474671404 L 8.018653337863116,8.386633859188612 L 8.202126426603114,8.426623027742684 L 8.38612194906166,8.465518236991485 L 8.570586718690729,8.503371743592881 L 8.755467548942292,8.540235804204737 L 8.940711253268322,8.576162675484914 L 9.126264645120795,8.611204614091282 L 9.312074537951682,8.645413876681701 L 9.498087745212953,8.678842719914035 L 9.684251080356587,8.711543400446155 L 9.870511356834552,8.74356817493592 L 10.056815756855098,8.774968971386793 L 10.243131703738998,8.805779677890008 L 10.429456956531403,8.836007145791442 L 10.615791766144365,8.865656005558062 L 10.802136383489929,8.89473088765683 L 10.988491059480141,8.923236422554714 L 11.174856045027054,8.951177240718676 L 11.36123159104271,8.978557972615683 L 11.547617948439166,9.005383248712697 L 11.734015368128457,9.031657699476684 L 11.92042410102264,9.057385955374608 L 12.106844398033756,9.082572646873434 L 12.293276510073856,9.107222404440126 L 12.479720688054988,9.13133985854165 L 12.666177182889198,9.15492963964497 L 12.852646245488534,9.177996378217053 L 13.039128126765045,9.200544704724859 L 13.225623077630773,9.222579249635354 L 13.412131348997775,9.244104643415504 L 13.598653191778093,9.265125516532274 L 13.785188856883776,9.28564649945263 L 13.971738595226867,9.305672222643532 L 14.158302657719423,9.325207316571948 L 14.344881295273481,9.344256411704842 L 14.531474758801098,9.362824138509179 L 14.71808329921431,9.380915127451921 L 14.904707167425178,9.398534009000038 L 15.091346614345738,9.415685413620489 L 15.278001890888047,9.432373971780244 L 15.464673247964148,9.448604313946262 L 15.651360936486087,9.46438107058551 L 15.838065207365913,9.479708872164956 L 16.024786311515673,9.494592349151556 L 16.211524499847414,9.509036132012284 L 16.398280023273195,9.523044851214102 L 16.58505313270505,9.536623137223977 L 16.771844079055022,9.549775620508864 L 16.958653113235172,9.562506931535735 L 17.145480486157545,9.574821700771558 L 17.332326448734182,9.58672455868329 L 17.51919125187714,9.598220135737899 L 17.706075146498456,9.60931306240235 L 17.892978383510183,9.620007969143607 L 18.07990121382437,9.630309486428635 L 18.266843888353062,9.6402222447244 L 18.453806658008308,9.649750874497864 L 18.640789773702156,9.65890000621599 L 18.82779348634665,9.66767427034575 L 19.014818046853843,9.6760782973541 L 19.201863706135782,9.684116717708013 L 19.388930715104504,9.691794161874444 L 19.576019324672078,9.699115260320369 L 19.763129785750525,9.706084643512742 L 19.950262349251915,9.712706941918539 L 20.137417266088274,9.718986786004708 L 20.324594787171673,9.72492880623823 L 20.511795163414146,9.730537633086062 L 20.69901864572775,9.735817897015172 L 20.886265485024516,9.740774228492521 L 21.073535932216508,9.745411257985072 L 21.26083023821576,9.7497336159598 L 21.448148653934336,9.753745932883657 L 21.635491430284258,9.757452839223612 L 21.822858818177604,9.760858965446634 L 22.010251068526397,9.763968942019686 L 22.197668432242704,9.766787399409727 L 22.385111160238566,9.769318968083729 L 22.572579503426013,9.771568278508653 L 22.76007371271712,9.773539961151462 L 22.94759403902393,9.775238646479126 L 23.135140733258467,9.776668964958603 L 23.3227140463328,9.777835547056865 L 23.51031422915897,9.778743023240871 L 23.69794153264902,9.779396023977583 L 23.885596207715015,9.779799179733974 L 24.07327850526898,9.779957120977002 L 24.26098867622298,9.779874478173639 L 24.44872697148905,9.779555881790841 L 24.63649364197925,9.77900596229558 L 24.824288938605612,9.778229350154811 L 25.012113112280204,9.777230675835511 L 25.19996641391506,9.776014569804639 L 25.387849094422222,9.774585662529155 L 25.57576140471374,9.772948584476028 L 25.763703595701678,9.771107966112226 L 25.951675918298072,9.769068437904709 L 26.139678623414962,9.766834630320439 L 26.32771196196441,9.764411173826387 L 26.51577618485845,9.761802698889516 L 26.703871543009136,9.75901383597679 L 26.891998287328526,9.756049215555173 L 27.08015666872865,9.752913468091629 L 27.268346938121574,9.749611224053126 L 27.456569346419325,9.746147113906622 L 27.644824144533963,9.742525768119089 L 27.833111583377534,9.738751817157487 L 28.021431913862088,9.734829891488786 L 28.209785386899657,9.73076462157994 L 28.398172253402315,9.726560637897927 L 28.586592764282084,9.7222225709097 L 28.775047170451025,9.717755051082232 L 28.963535722821195,9.713162708882486 L 29.152058672304616,9.708450174777424 L 29.340616269813353,9.703622079234009 L 29.529208766259455,9.698683052719213 L 29.71783641255496,9.693637725699991 L 29.906499459611915,9.688490728643314 L 30.095198158342388,9.683246692016152 L 30.283932759658402,9.677910246285457 L 30.47270351447201,9.672486021918196 L 30.66151067369527,9.666978649381344 L 30.850354488240214,9.661392759141856 L 31.039235209018912,9.6557329816667 L 31.228153086943387,9.650003947422842 L 31.417108372925696,9.644210286877243 L 31.6061013178779,9.63835663049687 L 31.795132172712037,9.63244760874869 L 31.984201188340144,9.626487852099663 L 32.17330861567427,9.620481991016755 L 32.36245470562648,9.614434655966928 L 32.55163970910881,9.608350477417154 L 32.740863877033306,9.602234085834391 L 32.93012746031203,9.596090111685607 L 33.11943070985701,9.589923185437769 L 33.3087738765803,9.583737937557835 L 33.498157211393945,9.577538998512772 L 33.687580965209996,9.571330998769549 L 33.8770453889405,9.565118568795123 L 34.06655073349752,9.558906339056469 L 34.256097249793086,9.55269894002054 L 34.44568518873923,9.546501002154308 L 34.63531480124804,9.540317155924738 L 34.82498633823154,9.53415203179879 L 35.014700050601775,9.528010260243434 L 35.20445618927079,9.52189647172563 L 35.394255005150654,9.515815296712347 L 35.58409674915339,9.509771365670543 L 35.77398167219106,9.503769309067188 L 35.96391002517571,9.497813757369249 L 36.15388205901938,9.491909341043685 L 36.343898024634136,9.486060690557466 L 36.53395817293199,9.480272436377547 L 36.72406275482503,9.474549208970902 L 36.914212021225275,9.468895638804494 L 37.10440622304478,9.463316356345285 L 37.294645611195605,9.457815992060242 L 37.48493043658978,9.452399176416327 L 37.67526095013937,9.447070539880507 L 37.865637402756406,9.441834712919746 L 38.05606004535295,9.436696326001012 L 38.24652912884103,9.431660009591262 L 38.43704490413271,9.426730394157465 L 38.62760762214005,9.421912110166588 L 38.818217533775055,9.41720978808559 L 39.00887488994982,9.412628058381443 L 39.19957994157636,9.408171551521104 L 39.39033293956674,9.403844897971544 L 39.581134134832986,9.39965272819972 L 39.77198377828719,9.39559967267261 L 39.96288212084134,9.391690361857162 L 40.15382941340753,9.387929426220351 L 40.344825906897796,9.384321496229143 L 40.535871852224176,9.380871202350496 L 40.72696750029871,9.377583175051377 L 40.91811310203348,9.374462044798754 L 41.10930890834048,9.371512442059585 L 41.300555170131815,9.368738997300841 L 41.4918521383195,9.366146340989484 L 41.6832000638156,9.363739103592481 L 41.87459919753214,9.361521915576793 L 42.06604979038118,9.359499407409384 L 42.257552093274775,9.357676209557225 L 42.44910635712496,9.356056952487275 L 42.64071283284379,9.3546462666665 L 42.83237177134332,9.353448782561864 L 43.024083423535565,9.352469130640333 L 43.21584804033261,9.35171194136887 L 43.40766587264648,9.351181845214445 L 43.59953717138924,9.350883472644014 L 43.79146218747292,9.350821454124548 L 43.98344117180958,9.35100042012301 L 44.17547437531126,9.351425001106364 L 44.36756204889002,9.352099827541576 L 44.55970444345789,9.35302952989561 L 44.75190180992692,9.354218738635426 L 44.944154399209175,9.355672084227997 L 45.13646246221668,9.357394197140284 L 45.32882624986151,9.359389707839249 L 45.52124601305567,9.36166324679186 L 45.71372200271126,9.36421944446508 L 45.90625446974028,9.367062931325874 L 46.098843665054815,9.37019833784121 L 46.29148983956688,9.373630294478046 L 46.48419324418856,9.377363431703351 L 46.67695412983187,9.38140237998409 L 46.869772747408874,9.385751769787227 L 47.06264934783161,9.390416231579724 L 47.25558418201213,9.395400395828549 L 47.448577500862484,9.400708893000665 L 47.64162955529471,9.406346353563038 L 47.83474059622087,9.412317407982629 L 48.027910874553,9.418626686726409 L 48.221140641203164,9.425278820261337 L 48.41443014708338,9.432278439054382 L 48.607779643105715,9.439630173572503 L 48.80118938018222,9.447338654282667 L 48.99465960922494,9.455408511651843 L 49.1881905811459,9.463844376146989 L 49.381782546857195,9.472650878235077 L 49.57543575727084,9.481832648383065 L 49.769150463298885,9.491394317057923 L 49.96292691585339,9.50134051472661 L 50.15676516026738,9.511674840058333 L 50.35066322645921,9.522390776387265 L 50.54461800228759,9.533476075068101 L 50.73862636257035,9.54491842200365 L 50.93268518212532,9.556705503096728 L 51.12679133577035,9.568825004250145 L 51.32094169832326,9.581264611366715 L 51.51513314460192,9.594012010349244 L 51.709362549424156,9.607054887100553 L 51.9036267876078,9.620380927523449 L 52.0979227339707,9.633977817520748 L 52.29224726333068,9.647833242995258 L 52.4865972505056,9.661934889849796 L 52.68096957031328,9.676270443987168 L 52.87536109757156,9.690827591310192 L 53.069768707098305,9.705594017721682 L 53.26418927371133,9.720557409124444 L 53.45861967222849,9.735705451421293 L 53.6530567774676,9.751025830515042 L 53.84749746424651,9.766506232308503 L 54.041938607383074,9.782134342704493 L 54.23637708169511,9.797897847605816 L 54.43080976200046,9.813784432915288 L 54.62523352311699,9.829781784535722 L 54.8196452398625,9.845877588369932 L 55.014041787054865,9.862059530320726 L 55.208420039511886,9.878315296290916 L 55.40277687205144,9.894632572183323 L 55.59710915949133,9.910999043900748 L 55.79141377664943,9.927402397346013 L 55.98568759834357,9.943830318421925 L 56.17992749939155,9.960270493031295 L 56.37413035461128,9.976710607076942 L 56.56829303882054,9.993138346461674 L 56.7624124268372,10.0095413970883 L 56.956485393479056,10.025907444859634 L 57.15050881356401,10.042224175678493 L 57.34447956190986,10.05847927544769 L 57.53839451333447,10.074660430070033 L 57.732250542655635,10.090755325448331 L 57.926044524691235,10.106751647485403 L 58.11977333425911,10.122637082084058 L 58.31343384617708,10.138399315147112 L 58.50702293526298,10.154026032577372 L 58.70053747633466,10.169504920277655 L 58.89397434420998,10.18482366415077 L 59.087330413706745,10.199969950099533 L 59.2806025596428,10.214931464026753 L 59.473787656836,10.229695891835245 L 59.666882580104165,10.244250919427817 L 59.859884204265164,10.258584232707284 L 60.0527894041368,10.272683517576462 L 60.245595054536935,10.286536459938159 L 60.43829803028339,10.300130745695187 L 60.63089520619403,10.313454060750361 L 60.82338345708667,10.326494091006492 L 61.015759657779164,10.339238522366388 L 61.208020683089345,10.35167504073287 L 61.40016340783505,10.363791332008748 L 61.59218470683412,10.37557508209683 L 61.784081454904396,10.387013976899931 L 61.97585052686372,10.39809570232086 L 62.16748879752991,10.408807944262438 L 62.358993141720845,10.41913838862747 L 62.55036043425432,10.429074721318768 L 62.74158754994821,10.43860462823915 L 62.93267136362032,10.447715795291423 L 63.123608750088536,10.456395908378402 L 63.314396584170666,10.4646326534029 L 63.50503174068454,10.472413716267729 L 63.69551109444801,10.479726782875696 L 63.88583152027891,10.48655953912962 L 64.0759898929951,10.492899670932312 L 64.2659830874144,10.49873486418658 L 64.45580797835463,10.504052804795245 L 64.64546144063367,10.508841178661113 L 64.83494034906933,10.513087671686993 L 65.02424157847945,10.516779969775705 L 65.21336200368191,10.519905758830062 L 65.40229849949448,10.522452724752867 L 65.59104794073507,10.524408553446941 L 65.77960720222146,10.525760930815094 L 65.96797315877153,10.526497542760136 L 66.1561426852031,10.52660607518488 L 66.344112656334,10.526074213992143 L 66.53187994698209,10.52488964508473 L 66.7194414319652,10.523040054365458 L 66.90679398610115,10.52051312773714 L 67.09393448420784,10.517296551102586 L 67.28085980110302,10.513378010364608 L 67.46756681160461,10.508745191426021 L 67.6540523905304,10.503385780189635 L 67.84031341269824,10.497287462558264 L 68.026346752926,10.490437924434724 L 68.21214928603148,10.482824851721817 L 68.39771788683251,10.474435930322363 L 68.58304943014699,10.465258846139175 L 68.7681407907927,10.45528128507506 L 68.95298884358749,10.444490933032835 L 69.13759046334923,10.432875475915312 L 69.32194252489572,10.420422599625299 L 69.50604190304483,10.407119990065613 L 69.68988547261438,10.392955333139067 L 69.87347010842218,10.377916314748465 L 70.05679268528615,10.36199062079663 L 70.23985007802405,10.34516593718637 L 70.42263916145377,10.327429949820496 L 70.60515681039313,10.308770344601824 L 70.78739989965997,10.289174807433163 L 70.96936530407213,10.268631024217328 L 71.15104989844744,10.247126680857125 L 71.33245055760376,10.224649463255377 L 71.51356415635891,10.201187057314886 L 71.69438756953073,10.17672714893847 L 71.87491767193707,10.151257424028941 L 72.05515133839575,10.12476556848911 L 72.23508544372464,10.097239268221792 L 72.41471686274156,10.068666209129793 L 72.59404247026436,10.039034077115932 L 72.77305914111083,10.00833055808302 L 72.95176375009888,9.976543337933867 L 73.13015317204632,9.943660102571288 L 73.30822428177098,9.909668537898092 L 73.48597395409068,9.874556329817095 L 73.66339906382332,9.838311164231108 L 73.84049648578667,9.80092072704294 L 74.01726309479864,9.76237270415541 L 74.19369576567702,9.722654781471325 L 74.36979137323966,9.681754644893502 L 74.54554679230439,9.639659980324748 L 74.72095889768906,9.596358473667877 L 74.8960245642115,9.551837810825702 L 75.07074066668959,9.506085677701037 L 75.24510407994111,9.459089760196694 L 75.41911167878393,9.410837744215485 L 75.59276033803589,9.36131731566022 L 75.76604693251483,9.310516160433712 L 75.93896833703857,9.258421964438778 L 76.11151659460003,9.205020051484821 L 76.28365392011598,9.150281163581866 L 76.45533115783007,9.094170484055104 L 76.62649912956047,9.036653185266756 L 76.7971086571253,8.977694439579038 L 76.96711056234267,8.91725941935416 L 77.13645566703075,8.855313296954346 L 77.30509479300763,8.791821244741808 L 77.47297876209149,8.726748435078763 L 77.64005839610044,8.660060040327426 L 77.8062845168526,8.591721232850007 L 77.97160794616616,8.521697185008732 L 78.13597950585918,8.449953069165812 L 78.29935001774982,8.376454057683464 L 78.46167030365625,8.301165322923904 L 78.6228911853966,8.224052037249345 L 78.78296348478894,8.145079373022005 L 78.94183802365147,8.064212502604109 L 79.09946562380227,7.981416598357855 L 79.25579710705952,7.89665683264547 L 79.41078329524134,7.80989837782917 L 79.56437501016585,7.7211064062711685 L 79.7165230736512,7.630246090333682 L 79.86717830751554,7.537282602378927 L 80.01629153357696,7.442181114769119 L 80.16381357365363,7.3449067998664725 L 80.30969524956365,7.245424830033204 L 80.45388738312518,7.143700377631532 L 80.59634079615635,7.03969861502367 L 80.7370063104753,6.933384714571836 L 80.87583474790014,6.824723848638241 L 81.01277693024907,6.71368118958511 L 81.14778367934014,6.60022190977465 L 81.28080581699149,6.484311181569077 L 81.4117941650213,6.365914177330614 L 81.5406995452477,6.244996069421473 L 81.6674727794888,6.121522030203869 L 81.79206468956276,5.99545723204002 L 81.91442609728769,5.866766847292141 L 82.03450782448174,5.735416048322448 L 82.15226069296303,5.6013700074931565 L 82.26763552454968,5.464593897166481 L 82.38058314105986,5.325052889704642 L 82.4910543643117,5.182712157469852 L 82.5990000161233,5.037536872824325 L 82.70437091831283,4.8894922081302825 L 82.8071178926984,4.738543335749936 L 82.90719176109818,4.584655428045503 L 83.00454334533022,4.4277936573791985 L 83.09912346721275,4.26792319611324 L 83.19088294856385,4.105009216609843 L 83.2797726112017,3.939016891231222 L 83.36574327694439,3.769911392339595 L 83.44874576761006,3.5976578922971765 L 83.52873090501686,3.4222215634661817 L 83.60564951098289,3.2435675782088293 L 83.67945240732634,3.061661108887333 L 83.75009041586529,2.8764673278639092 L 83.81751435841792,2.687951407500785 L 83.88167505680232,2.4960785201601534 L 83.94252333283664,2.3008138382042436 L 84.00001000833905,2.1021225339952703 L 84.05408590512764,1.8999697798954485 L 84.10470184502054,1.6943207482669957 L 84.15180864983591,1.4851406114721266 L 84.19535714139188,1.2723945418730573 L 84.23529814150659,1.0560477118320046 L 84.27158247199814,0.8360652937111834 L 84.3041609546847,0.6124124598728103 L 84.33298441138437,0.38505438267910097 L 84.35800366391533,0.15395623449225848 L 84.35800366391533,-0.15395623449225848 L 84.33298441138437,-0.38505438267910097 L 84.3041609546847,-0.6124124598728103 L 84.27158247199814,-0.8360652937111834 L 84.23529814150659,-1.0560477118320046 L 84.19535714139188,-1.2723945418730573 L 84.15180864983591,-1.4851406114721266 L 84.10470184502054,-1.6943207482669957 L 84.05408590512764,-1.8999697798954485 L 84.00001000833905,-2.1021225339952703 L 83.94252333283664,-2.3008138382042436 L 83.88167505680232,-2.4960785201601534 L 83.81751435841792,-2.687951407500785 L 83.75009041586529,-2.8764673278639092 L 83.67945240732634,-3.061661108887333 L 83.60564951098289,-3.2435675782088293 L 83.52873090501686,-3.4222215634661817 L 83.44874576761006,-3.5976578922971765 L 83.36574327694439,-3.769911392339595 L 83.2797726112017,-3.939016891231222 L 83.19088294856385,-4.105009216609843 L 83.09912346721275,-4.26792319611324 L 83.00454334533022,-4.4277936573791985 L 82.90719176109818,-4.584655428045503 L 82.8071178926984,-4.738543335749936 L 82.70437091831283,-4.8894922081302825 L 82.5990000161233,-5.037536872824325 L 82.4910543643117,-5.182712157469852 L 82.38058314105986,-5.325052889704642 L 82.26763552454968,-5.464593897166481 L 82.15226069296303,-5.6013700074931565 L 82.03450782448174,-5.735416048322448 L 81.91442609728769,-5.866766847292141 L 81.79206468956276,-5.99545723204002 L 81.6674727794888,-6.121522030203869 L 81.5406995452477,-6.244996069421473 L 81.4117941650213,-6.365914177330614 L 81.28080581699149,-6.484311181569077 L 81.14778367934014,-6.60022190977465 L 81.01277693024907,-6.71368118958511 L 80.87583474790014,-6.824723848638241 L 80.7370063104753,-6.933384714571836 L 80.59634079615635,-7.03969861502367 L 80.45388738312518,-7.143700377631532 L 80.30969524956365,-7.245424830033204 L 80.16381357365363,-7.3449067998664725 L 80.01629153357696,-7.442181114769119 L 79.86717830751554,-7.537282602378927 L 79.7165230736512,-7.630246090333682 L 79.56437501016585,-7.7211064062711685 L 79.41078329524134,-7.80989837782917 L 79.25579710705952,-7.89665683264547 L 79.09946562380227,-7.981416598357855 L 78.94183802365147,-8.064212502604109 L 78.78296348478894,-8.145079373022005 L 78.6228911853966,-8.224052037249345 L 78.46167030365625,-8.301165322923904 L 78.29935001774982,-8.376454057683464 L 78.13597950585918,-8.449953069165812 L 77.97160794616616,-8.521697185008732 L 77.8062845168526,-8.591721232850007 L 77.64005839610044,-8.660060040327426 L 77.47297876209149,-8.726748435078763 L 77.30509479300763,-8.791821244741808 L 77.13645566703075,-8.855313296954346 L 76.96711056234267,-8.91725941935416 L 76.7971086571253,-8.977694439579038 L 76.62649912956047,-9.036653185266756 L 76.45533115783007,-9.094170484055104 L 76.28365392011598,-9.150281163581866 L 76.11151659460003,-9.205020051484821 L 75.93896833703857,-9.258421964438778 L 75.76604693251483,-9.310516160433712 L 75.59276033803589,-9.36131731566022 L 75.41911167878393,-9.410837744215485 L 75.24510407994111,-9.459089760196694 L 75.07074066668959,-9.506085677701037 L 74.8960245642115,-9.551837810825702 L 74.72095889768906,-9.596358473667877 L 74.54554679230439,-9.639659980324748 L 74.36979137323966,-9.681754644893502 L 74.19369576567702,-9.722654781471325 L 74.01726309479864,-9.76237270415541 L 73.84049648578667,-9.80092072704294 L 73.66339906382332,-9.838311164231108 L 73.48597395409068,-9.874556329817095 L 73.30822428177098,-9.909668537898092 L 73.13015317204632,-9.943660102571288 L 72.95176375009888,-9.976543337933867 L 72.77305914111083,-10.00833055808302 L 72.59404247026436,-10.039034077115932 L 72.41471686274156,-10.068666209129793 L 72.23508544372464,-10.097239268221792 L 72.05515133839575,-10.12476556848911 L 71.87491767193707,-10.151257424028941 L 71.69438756953073,-10.17672714893847 L 71.51356415635891,-10.201187057314886 L 71.33245055760376,-10.224649463255377 L 71.15104989844744,-10.247126680857125 L 70.96936530407213,-10.268631024217328 L 70.78739989965997,-10.289174807433163 L 70.60515681039313,-10.308770344601824 L 70.42263916145377,-10.327429949820496 L 70.23985007802405,-10.34516593718637 L 70.05679268528615,-10.36199062079663 L 69.87347010842218,-10.377916314748465 L 69.68988547261438,-10.392955333139067 L 69.50604190304483,-10.407119990065613 L 69.32194252489572,-10.420422599625299 L 69.13759046334923,-10.432875475915312 L 68.95298884358749,-10.444490933032835 L 68.7681407907927,-10.45528128507506 L 68.58304943014699,-10.465258846139175 L 68.39771788683251,-10.474435930322363 L 68.21214928603148,-10.482824851721817 L 68.026346752926,-10.490437924434724 L 67.84031341269824,-10.497287462558264 L 67.6540523905304,-10.503385780189635 L 67.46756681160461,-10.508745191426021 L 67.28085980110302,-10.513378010364608 L 67.09393448420784,-10.517296551102586 L 66.90679398610115,-10.52051312773714 L 66.7194414319652,-10.523040054365458 L 66.53187994698209,-10.52488964508473 L 66.344112656334,-10.526074213992143 L 66.1561426852031,-10.52660607518488 L 65.96797315877153,-10.526497542760136 L 65.77960720222146,-10.525760930815094 L 65.59104794073507,-10.524408553446941 L 65.40229849949448,-10.522452724752867 L 65.21336200368191,-10.519905758830062 L 65.02424157847945,-10.516779969775705 L 64.83494034906933,-10.513087671686993 L 64.64546144063367,-10.508841178661113 L 64.45580797835463,-10.504052804795245 L 64.2659830874144,-10.49873486418658 L 64.0759898929951,-10.492899670932312 L 63.88583152027891,-10.48655953912962 L 63.69551109444801,-10.479726782875696 L 63.50503174068454,-10.472413716267729 L 63.314396584170666,-10.4646326534029 L 63.123608750088536,-10.456395908378402 L 62.93267136362032,-10.447715795291423 L 62.74158754994821,-10.43860462823915 L 62.55036043425432,-10.429074721318768 L 62.358993141720845,-10.41913838862747 L 62.16748879752991,-10.408807944262438 L 61.97585052686372,-10.39809570232086 L 61.784081454904396,-10.387013976899931 L 61.59218470683412,-10.37557508209683 L 61.40016340783505,-10.363791332008748 L 61.208020683089345,-10.35167504073287 L 61.015759657779164,-10.339238522366388 L 60.82338345708667,-10.326494091006492 L 60.63089520619403,-10.313454060750361 L 60.43829803028339,-10.300130745695187 L 60.245595054536935,-10.286536459938159 L 60.0527894041368,-10.272683517576462 L 59.859884204265164,-10.258584232707284 L 59.666882580104165,-10.244250919427817 L 59.473787656836,-10.229695891835245 L 59.2806025596428,-10.214931464026753 L 59.087330413706745,-10.199969950099533 L 58.89397434420998,-10.18482366415077 L 58.70053747633466,-10.169504920277655 L 58.50702293526298,-10.154026032577372 L 58.31343384617708,-10.138399315147112 L 58.11977333425911,-10.122637082084058 L 57.926044524691235,-10.106751647485403 L 57.732250542655635,-10.090755325448331 L 57.53839451333447,-10.074660430070033 L 57.34447956190986,-10.05847927544769 L 57.15050881356401,-10.042224175678493 L 56.956485393479056,-10.025907444859634 L 56.7624124268372,-10.0095413970883 L 56.56829303882054,-9.993138346461674 L 56.37413035461128,-9.976710607076942 L 56.17992749939155,-9.960270493031295 L 55.98568759834357,-9.943830318421925 L 55.79141377664943,-9.927402397346013 L 55.59710915949133,-9.910999043900748 L 55.40277687205144,-9.894632572183323 L 55.208420039511886,-9.878315296290916 L 55.014041787054865,-9.862059530320726 L 54.8196452398625,-9.845877588369932 L 54.62523352311699,-9.829781784535722 L 54.43080976200046,-9.813784432915288 L 54.23637708169511,-9.797897847605816 L 54.041938607383074,-9.782134342704493 L 53.84749746424651,-9.766506232308503 L 53.6530567774676,-9.751025830515042 L 53.45861967222849,-9.735705451421293 L 53.26418927371133,-9.720557409124444 L 53.069768707098305,-9.705594017721682 L 52.87536109757156,-9.690827591310192 L 52.68096957031328,-9.676270443987168 L 52.4865972505056,-9.661934889849796 L 52.29224726333068,-9.647833242995258 L 52.0979227339707,-9.633977817520748 L 51.9036267876078,-9.620380927523449 L 51.709362549424156,-9.607054887100553 L 51.51513314460192,-9.594012010349244 L 51.32094169832326,-9.581264611366715 L 51.12679133577035,-9.568825004250145 L 50.93268518212532,-9.556705503096728 L 50.73862636257035,-9.54491842200365 L 50.54461800228759,-9.533476075068101 L 50.35066322645921,-9.522390776387265 L 50.15676516026738,-9.511674840058333 L 49.96292691585339,-9.50134051472661 L 49.769150463298885,-9.491394317057923 L 49.57543575727084,-9.481832648383065 L 49.381782546857195,-9.472650878235077 L 49.1881905811459,-9.463844376146989 L 48.99465960922494,-9.455408511651843 L 48.80118938018222,-9.447338654282667 L 48.607779643105715,-9.439630173572503 L 48.41443014708338,-9.432278439054382 L 48.221140641203164,-9.425278820261337 L 48.027910874553,-9.418626686726409 L 47.83474059622087,-9.412317407982629 L 47.64162955529471,-9.406346353563038 L 47.448577500862484,-9.400708893000665 L 47.25558418201213,-9.395400395828549 L 47.06264934783161,-9.390416231579724 L 46.869772747408874,-9.385751769787227 L 46.67695412983187,-9.38140237998409 L 46.48419324418856,-9.377363431703351 L 46.29148983956688,-9.373630294478046 L 46.098843665054815,-9.37019833784121 L 45.90625446974028,-9.367062931325874 L 45.71372200271126,-9.36421944446508 L 45.52124601305567,-9.36166324679186 L 45.32882624986151,-9.359389707839249 L 45.13646246221668,-9.357394197140284 L 44.944154399209175,-9.355672084227997 L 44.75190180992692,-9.354218738635426 L 44.55970444345789,-9.35302952989561 L 44.36756204889002,-9.352099827541576 L 44.17547437531126,-9.351425001106364 L 43.98344117180958,-9.35100042012301 L 43.79146218747292,-9.350821454124548 L 43.59953717138924,-9.350883472644014 L 43.40766587264648,-9.351181845214445 L 43.21584804033261,-9.35171194136887 L 43.024083423535565,-9.352469130640333 L 42.83237177134332,-9.353448782561864 L 42.64071283284379,-9.3546462666665 L 42.44910635712496,-9.356056952487275 L 42.257552093274775,-9.357676209557225 L 42.06604979038118,-9.359499407409384 L 41.87459919753214,-9.361521915576793 L 41.6832000638156,-9.363739103592481 L 41.4918521383195,-9.366146340989484 L 41.300555170131815,-9.368738997300841 L 41.10930890834048,-9.371512442059585 L 40.91811310203348,-9.374462044798754 L 40.72696750029871,-9.377583175051377 L 40.535871852224176,-9.380871202350496 L 40.344825906897796,-9.384321496229143 L 40.15382941340753,-9.387929426220351 L 39.96288212084134,-9.391690361857162 L 39.77198377828719,-9.39559967267261 L 39.581134134832986,-9.39965272819972 L 39.39033293956674,-9.403844897971544 L 39.19957994157636,-9.408171551521104 L 39.00887488994982,-9.412628058381443 L 38.818217533775055,-9.41720978808559 L 38.62760762214005,-9.421912110166588 L 38.43704490413271,-9.426730394157465 L 38.24652912884103,-9.431660009591262 L 38.05606004535295,-9.436696326001012 L 37.865637402756406,-9.441834712919746 L 37.67526095013937,-9.447070539880507 L 37.48493043658978,-9.452399176416327 L 37.294645611195605,-9.457815992060242 L 37.10440622304478,-9.463316356345285 L 36.914212021225275,-9.468895638804494 L 36.72406275482503,-9.474549208970902 L 36.53395817293199,-9.480272436377547 L 36.343898024634136,-9.486060690557466 L 36.15388205901938,-9.491909341043685 L 35.96391002517571,-9.497813757369249 L 35.77398167219106,-9.503769309067188 L 35.58409674915339,-9.509771365670543 L 35.394255005150654,-9.515815296712347 L 35.20445618927079,-9.52189647172563 L 35.014700050601775,-9.528010260243434 L 34.82498633823154,-9.53415203179879 L 34.63531480124804,-9.540317155924738 L 34.44568518873923,-9.546501002154308 L 34.256097249793086,-9.55269894002054 L 34.06655073349752,-9.558906339056469 L 33.8770453889405,-9.565118568795123 L 33.687580965209996,-9.571330998769549 L 33.498157211393945,-9.577538998512772 L 33.3087738765803,-9.583737937557835 L 33.11943070985701,-9.589923185437769 L 32.93012746031203,-9.596090111685607 L 32.740863877033306,-9.602234085834391 L 32.55163970910881,-9.608350477417154 L 32.36245470562648,-9.614434655966928 L 32.17330861567427,-9.620481991016755 L 31.984201188340144,-9.626487852099663 L 31.795132172712037,-9.63244760874869 L 31.6061013178779,-9.63835663049687 L 31.417108372925696,-9.644210286877243 L 31.228153086943387,-9.650003947422842 L 31.039235209018912,-9.6557329816667 L 30.850354488240214,-9.661392759141856 L 30.66151067369527,-9.666978649381344 L 30.47270351447201,-9.672486021918196 L 30.283932759658402,-9.677910246285457 L 30.095198158342388,-9.683246692016152 L 29.906499459611915,-9.688490728643314 L 29.71783641255496,-9.693637725699991 L 29.529208766259455,-9.698683052719213 L 29.340616269813353,-9.703622079234009 L 29.152058672304616,-9.708450174777424 L 28.963535722821195,-9.713162708882486 L 28.775047170451025,-9.717755051082232 L 28.586592764282084,-9.7222225709097 L 28.398172253402315,-9.726560637897927 L 28.209785386899657,-9.73076462157994 L 28.021431913862088,-9.734829891488786 L 27.833111583377534,-9.738751817157487 L 27.644824144533963,-9.742525768119089 L 27.456569346419325,-9.746147113906622 L 27.268346938121574,-9.749611224053126 L 27.08015666872865,-9.752913468091629 L 26.891998287328526,-9.756049215555173 L 26.703871543009136,-9.75901383597679 L 26.51577618485845,-9.761802698889516 L 26.32771196196441,-9.764411173826387 L 26.139678623414962,-9.766834630320439 L 25.951675918298072,-9.769068437904709 L 25.763703595701678,-9.771107966112226 L 25.57576140471374,-9.772948584476028 L 25.387849094422222,-9.774585662529155 L 25.19996641391506,-9.776014569804639 L 25.012113112280204,-9.777230675835511 L 24.824288938605612,-9.778229350154811 L 24.63649364197925,-9.77900596229558 L 24.44872697148905,-9.779555881790841 L 24.26098867622298,-9.779874478173639 L 24.07327850526898,-9.779957120977002 L 23.885596207715015,-9.779799179733974 L 23.69794153264902,-9.779396023977583 L 23.51031422915897,-9.778743023240871 L 23.3227140463328,-9.777835547056865 L 23.135140733258467,-9.776668964958603 L 22.94759403902393,-9.775238646479126 L 22.76007371271712,-9.773539961151462 L 22.572579503426013,-9.771568278508653 L 22.385111160238566,-9.769318968083729 L 22.197668432242704,-9.766787399409727 L 22.010251068526397,-9.763968942019686 L 21.822858818177604,-9.760858965446634 L 21.635491430284258,-9.757452839223612 L 21.448148653934336,-9.753745932883657 L 21.26083023821576,-9.7497336159598 L 21.073535932216508,-9.745411257985072 L 20.886265485024516,-9.740774228492521 L 20.69901864572775,-9.735817897015172 L 20.511795163414146,-9.730537633086062 L 20.324594787171673,-9.72492880623823 L 20.137417266088274,-9.718986786004708 L 19.950262349251915,-9.712706941918539 L 19.763129785750525,-9.706084643512742 L 19.576019324672078,-9.699115260320369 L 19.388930715104504,-9.691794161874444 L 19.201863706135782,-9.684116717708013 L 19.014818046853843,-9.6760782973541 L 18.82779348634665,-9.66767427034575 L 18.640789773702156,-9.65890000621599 L 18.453806658008308,-9.649750874497864 L 18.266843888353062,-9.6402222447244 L 18.07990121382437,-9.630309486428635 L 17.892978383510183,-9.620007969143607 L 17.706075146498456,-9.60931306240235 L 17.51919125187714,-9.598220135737899 L 17.332326448734182,-9.58672455868329 L 17.145480486157545,-9.574821700771558 L 16.958653113235172,-9.562506931535735 L 16.771844079055022,-9.549775620508864 L 16.58505313270505,-9.536623137223977 L 16.398280023273195,-9.523044851214102 L 16.211524499847414,-9.509036132012284 L 16.024786311515673,-9.494592349151556 L 15.838065207365913,-9.479708872164956 L 15.651360936486087,-9.46438107058551 L 15.464673247964148,-9.448604313946262 L 15.278001890888047,-9.432373971780244 L 15.091346614345738,-9.415685413620489 L 14.904707167425178,-9.398534009000038 L 14.71808329921431,-9.380915127451921 L 14.531474758801098,-9.362824138509179 L 14.344881295273481,-9.344256411704842 L 14.158302657719423,-9.325207316571948 L 13.971738595226867,-9.305672222643532 L 13.785188856883776,-9.28564649945263 L 13.598653191778093,-9.265125516532274 L 13.412131348997775,-9.244104643415504 L 13.225623077630773,-9.222579249635354 L 13.039128126765045,-9.200544704724859 L 12.852646245488534,-9.177996378217053 L 12.666177182889198,-9.15492963964497 L 12.479720688054988,-9.13133985854165 L 12.293276510073856,-9.107222404440126 L 12.106844398033756,-9.082572646873434 L 11.92042410102264,-9.057385955374608 L 11.734015368128457,-9.031657699476684 L 11.547617948439166,-9.005383248712697 L 11.36123159104271,-8.978557972615683 L 11.174856045027054,-8.951177240718676 L 10.988491059480141,-8.923236422554714 L 10.802136383489929,-8.89473088765683 L 10.615791766144365,-8.865656005558062 L 10.429456956531403,-8.836007145791442 L 10.243131703738998,-8.805779677890008 L 10.056815756855098,-8.774968971386793 L 9.870511356834552,-8.74356817493592 L 9.684251080356587,-8.711543400446155 L 9.498087745212953,-8.678842719914035 L 9.312074537951682,-8.645413876681701 L 9.126264645120795,-8.611204614091282 L 8.940711253268322,-8.576162675484914 L 8.755467548942292,-8.540235804204737 L 8.570586718690729,-8.503371743592881 L 8.38612194906166,-8.465518236991485 L 8.202126426603114,-8.426623027742684 L 8.018653337863116,-8.386633859188612 L 7.8357558693896925,-8.345498474671404 L 7.653487207730871,-8.303164617533197 L 7.471900539434678,-8.259580031116124 L 7.291049051049143,-8.214692458762324 L 7.1109859291222905,-8.168449643813927 L 6.931764360202148,-8.120799329613073 L 6.753437530836743,-8.071689259501895 L 6.576058627574103,-8.021067176822532 L 6.399680836962253,-7.968880824917115 L 6.224357345549221,-7.91507794712778 L 6.050141339883032,-7.859606286796663 L 5.877086006511714,-7.802413587265899 L 5.705244531983296,-7.743447591877624 L 5.534670102845803,-7.682656043973973 L 5.365415905647263,-7.6199866868970805 L 5.1975351269356995,-7.555387263989084 L 5.031080953259143,-7.488805518592115 L 4.866106571165619,-7.420189194048313 L 4.702665167203156,-7.349486033699811 L 4.540809927919779,-7.276643780888743 L 4.380594039863516,-7.201610178957251 L 4.222070689582394,-7.124332971247463 L 4.065293063624439,-7.044759901101517 L 3.910314348537678,-6.962838711861546 L 3.7571877308701387,-6.878517146869689 L 3.6059663971698463,-6.79174294946808 L 3.4567035339848315,-6.702463862998858 L 3.3094523278631165,-6.6106276308041485 L 3.1642659653527305,-6.516181996226094 L 3.0211976330017016,-6.419074702606831 L 2.8803005173580543,-6.319253493288491 L 2.7416278049698164,-6.216666111613211 L 2.6052326823850165,-6.111260300923127 L 2.4711683361516794,-6.0029838045603725 L 2.339487952817832,-5.891784365867083 L 2.2102447189315018,-5.777609728185394 L 2.0834918210407163,-5.660407634857443 L 1.9592824456935019,-5.540125829225363 L 1.8376697794378851,-5.41671205463129 L 1.7187070088218932,-5.290114054417359 L 1.6024473203935536,-5.160279571925707 L 1.4889439007008918,-5.0271563504984655 L 1.3782499362919358,-4.890692133477773 L 1.2704186137147127,-4.750834664205764 L 1.1655031195172492,-4.607531686024576 L 1.0635566402475716,-4.460730942276341 L 0.9646323624537073,-4.310380176303195 L 0.8687834726836834,-4.156427131447275 L 0.7760631574855263,-3.9988195510507136 L 0.6865246034072632,-3.837505178455649 L 0.6002209969969211,-3.6724317570042153 L 0.5172055248025269,-3.503547030038548 L 0.4375313733721071,-3.3307987409007818 L 0.3612517292536889,-3.154134632933052 L 0.2884197789952994,-2.9735024494774955 L 0.219088709144965,-2.788849933876245 L 0.15331170625071325,-2.6001248294714387 L 0.09114195686057053,-2.4072748796052106 L 0.03263264752256392,-2.210247827619695 L -0.022163035215279604,-2.0089914168570284 L -0.07319190480493316,-1.8034533906593457 L -0.1204007746983699,-1.5935814923687823 L -0.16373645834756265,-1.3793234653274735 L -0.20314576920448493,-1.1606270528775555 L -0.23857552072110974,-0.9374399983611622 L -0.2699725263494099,-0.7097100451204302 L -0.2972835995413587,-0.4773849364974939 L -0.3204555537489292,-0.24041241583448902 Z" fill="none" stroke="black" stroke-width="0.5" /></svg>