<?xml version="1.0" encoding="utf-8"?>
<!-- Generator: Adobe Illustrator 19.0.0, SVG Export Plug-In . SVG Version: 6.00 Build 0)  -->
<svg version="1.1" id="Layer_1" xmlns:ev="http://www.w3.org/2001/xml-events"
	 xmlns="http://www.w3.org/2000/svg" xmlns:xlink="http://www.w3.org/1999/xlink" x="0px" y="0px" viewBox="-197 159.5 200 100"
	 style="enable-background:new -197 159.5 200 100;" xml:space="preserve">
<style type="text/css">
	.st0{fill:none;stroke:#000000;}
</style>
<path class="st0" d="M-194.2,150.6c0.5-1.2,2-3.3,2.8-4.3c1.3-1.6,4.1-4.5,5.7-5.8c1.3-1.1,4.2-2.8,5.7-3.6c1.4-0.7,4.2-1.7,5.7-2.2
	c1.4-0.4,4.2-1.2,5.7-1.4c7-1.1,21.3-2.3,28.4-2.8c7.1-0.5,21.5-1.1,28.6-1.5c7.1-0.4,21.4-0.5,28.5-0.7c2.8-0.1,8.5-0.5,11.4-0.4
	c25.7,0.6,77.3,13.3,102.6,8.3c1.6-0.3,4.1-3.1,5.7-2.9c2,0.3,4.6,4.1,5.7,5.8c2,2.9,4.8,9.5,5.7,12.9c0.8,2.8,1.5,8.6,1.4,11.5
	c0,1.8-0.9,5.4-1.4,7.2c-1.1,3.4-3.7,10-5.7,12.9c-1.1,1.7-4.1,4.6-5.7,5.8c-1.3,0.9-4.2,2.3-5.7,2.9c-1.4,0.6-4.2,1.4-5.7,1.7
	c-2.8,0.6-8.5,1.2-11.4,1.2c-2.9,0-8.5-1.2-11.4-1.4c-7.1-0.7-21.4-1.7-28.5-2.2c-7.1-0.4-21.4-1.2-28.5-1.4
	c-7.1-0.3-21.4-0.7-28.5-0.7s-21.4,0.4-28.5,0.7c-7.1,0.3-21.4,1.1-28.5,1.4s-21.4,1.7-28.5,1.4c-1.4-0.1-4.3-0.5-5.7-0.7
	c-1.4-0.3-4.3-0.9-5.7-1.4c-1.5-0.6-4.4-1.9-5.7-2.9c-1.6-1.2-4.4-4.2-5.7-5.8c-0.8-1-2.4-3.1-2.8-4.3c-1.4-3.4-3-10.7-2.8-14.4
	C-196.9,160.2-195.4,153.7-194.2,150.6z"/>
</svg>
