<?xml version="1.0" encoding="utf-8"?>
<!-- Generator: Adobe Illustrator 26.1.0, SVG Export Plug-In . SVG Version: 6.00 Build 0)  -->
<svg version="1.1" id="Layer_1" xmlns:ev="http://www.w3.org/2001/xml-events"
	 xmlns="http://www.w3.org/2000/svg" xmlns:xlink="http://www.w3.org/1999/xlink" x="0px" y="0px" viewBox="0 0 200 100"
	 style="enable-background:new 0 0 200 100;" xml:space="preserve">
<style type="text/css">
	.st0{fill:none;stroke:#000000;}
</style>
<path class="st0" d="M0,28c0,2.4,0.6,7.1,1.4,9.4c0.7,1.9,2.9,5.5,4.3,7.1c1.2,1.3,4.1,3.6,5.7,4.4c1.3,0.7,4.2,1.5,5.7,1.8
	c1.4,0.4,4.2,0.9,5.7,1.1c1.4,0.2,4.3,0.3,5.7,0.4c7.1,0.4,21.3,0.9,28.3,1.1c7.1,0.2,21.3,0.5,28.3,0.7c7.1,0.2,21.3,0.5,28.3,0.7
	c7.1,0.2,21.3,0.5,28.3,0.6c7.1,0.1,21.3,0.1,28.3,0.2c7.1,0.1,21.3,0.6,28.3,0.4c1.4,0,4.3-0.3,5.7-0.4c1.4-0.1,4.3-0.4,5.7-0.6
	c1.4-0.2,4.3-0.6,5.7-0.9c1.4-0.3,4.3-0.9,5.7-1.4c1.5-0.5,4.3-1.7,5.7-2.6c1.5-0.9,4.5-3.1,5.7-4.5c1.4-1.7,3.6-5.6,4.3-7.7
	c0.8-2.4,1.4-7.4,1.4-9.9s-0.6-7.5-1.4-9.9c-0.7-2.1-2.8-6-4.3-7.7c-1.2-1.4-4.1-3.6-5.7-4.5c-1.3-0.8-4.2-2-5.7-2.6
	c-1.4-0.5-4.2-1.1-5.7-1.4c-1.4-0.3-4.2-0.7-5.7-0.9c-1.4-0.2-4.3-0.4-5.7-0.6c-1.4-0.1-4.2-0.4-5.7-0.4c-7.1-0.2-21.3,0.3-28.3,0.4
	c-7.1,0.1-21.3,0.1-28.3,0.2c-7.1,0.1-21.3,0.4-28.3,0.6C106.3,1.3,92.1,1.7,85,1.9C78,2.1,63.8,2.4,56.7,2.6
	c-7.1,0.2-21.3,0.7-28.3,1.1c-1.4,0.1-4.3,0.2-5.7,0.4c-1.4,0.2-4.3,0.8-5.7,1.1c-1.4,0.4-4.4,1.1-5.7,1.8C9.8,8,6.9,10.2,5.7,11.5
	c-1.4,1.5-3.6,5.1-4.3,7.1C0.6,20.8,0,25.6,0,28z"/>
</svg>
