<?xml version="1.0" encoding="utf-8"?>
<!-- Generator: Adobe Illustrator 26.1.0, SVG Export Plug-In . SVG Version: 6.00 Build 0)  -->
<svg version="1.1" id="Layer_1" xmlns:ev="http://www.w3.org/2001/xml-events"
	 xmlns="http://www.w3.org/2000/svg" xmlns:xlink="http://www.w3.org/1999/xlink" x="0px" y="0px" viewBox="0 0 200 100"
	 style="enable-background:new 0 0 200 100;" xml:space="preserve">
<style type="text/css">
	.st0{fill:none;stroke:#000000;}
</style>
<path class="st0" d="M0,0c0.3-1.4,1.9-3.8,2.8-4.9c0.6-0.7,2-1.9,2.8-2.3c1.3-0.7,4.2-1.6,5.7-2c1.4-0.4,4.3-0.9,5.7-1.2
	s4.3-0.9,5.7-1.2c1.4-0.3,4.3-0.7,5.7-0.9c7.1-0.9,21.4-2.3,28.5-2.9c7.1-0.5,21.4-1.1,28.5-1.4c7.1-0.3,21.4-1,28.5-1.2
	c7.1-0.2,21.4-0.3,28.5-0.3c7.1,0,21.4,0,28.5,0c7.1,0,21.4,0.2,28.5,0.3c7.1,0.1,21.4,0.1,28.5,0.3c7.1,0.2,21.4,0.7,28.5,1.2
	c3.6,0.2,10.7,0.7,14.2,1.2c3.6,0.4,10.7,1.6,14.2,2.3c1.4,0.3,4.3,0.9,5.7,1.4c1.5,0.6,4.3,2,5.7,2.9c1.5,0.9,4.4,3.1,5.7,4.3
	c1.6,1.6,4.4,5.3,5.7,7.2c0.8,1.2,2.2,3.8,2.8,5.2c0.9,1.9,2.3,5.8,2.8,7.8c1.2,4.6,2.9,14,2.8,18.7c-0.1,5.1-1,15.4-2.8,20.1
	c-0.5,1.2-2,3.3-2.8,4.3c-0.6,0.8-2,2.3-2.8,2.9c-1.3,0.8-4.2,1.8-5.7,2.2c-1.4,0.3-4.3,0.7-5.7,0.6c-1.5-0.1-4.3-0.8-5.7-1.3
	c-1.5-0.5-4.3-2.2-5.7-2.9s-4.2-2.3-5.7-2.9c-5.6-2.4-16.9-6.5-22.8-7.9c-7-1.6-21.3-3.5-28.5-3.6c-7.2-0.1-21.4,2.1-28.5,2.9
	c-6.4,0.7-19.2,2.9-25.6,2.9c-7.9,0-23.6-2.3-31.3-3.7c-7.2-1.3-21.2-6-28.5-7c-4.2-0.6-12.8-0.8-17.1-0.7
	c-6.4,0.1-19.3,1.1-25.6,2.2C67.6,43,60.6,45.4,57,46c-3.5,0.6-10.7,1.2-14.2,1.2c-3.6-0.1-10.8-0.8-14.2-1.9
	c-1.5-0.5-4.3-2-5.7-2.7c-1.4-0.7-4.4-2.1-5.7-3c-1.6-1.1-4.5-3.6-5.7-5c-1.7-2-4.4-6.4-5.7-8.6c-0.8-1.4-2.3-4.2-2.8-5.8
	C1.1,15.4-1,5,0,0z"/>
</svg>
